<?xml version="1.0" encoding="UTF-8" standalone="no"?>
<!-- Uploaded to: SVG Repo, www.svgrepo.com, Generator: SVG Repo Mixer Tools -->

<svg
   xmlns:dc="http://purl.org/dc/elements/1.1/"
   xmlns:cc="http://creativecommons.org/ns#"
   xmlns:rdf="http://www.w3.org/1999/02/22-rdf-syntax-ns#"
   xmlns:svg="http://www.w3.org/2000/svg"
   xmlns="http://www.w3.org/2000/svg"
   xmlns:sodipodi="http://sodipodi.sourceforge.net/DTD/sodipodi-0.dtd"
   xmlns:inkscape="http://www.inkscape.org/namespaces/inkscape"
   width="800"
   height="800"
   viewBox="0 0 20 20"
   version="1.1"
   id="svg12"
   sodipodi:docname="logo_github.svg"
   inkscape:version="0.92.5 (2060ec1f9f, 2020-04-08)"
   inkscape:export-filename="/home/theophile/perso/github/website/professionnal8/img/logo_github.png"
   inkscape:export-xdpi="96"
   inkscape:export-ydpi="96">
  <metadata
     id="metadata16">
    <rdf:RDF>
      <cc:Work
         rdf:about="">
        <dc:format>image/svg+xml</dc:format>
        <dc:type
           rdf:resource="http://purl.org/dc/dcmitype/StillImage" />
        <dc:title>github [#142]</dc:title>
      </cc:Work>
    </rdf:RDF>
  </metadata>
  <sodipodi:namedview
     pagecolor="#ffffff"
     bordercolor="#666666"
     borderopacity="1"
     objecttolerance="10"
     gridtolerance="10"
     guidetolerance="10"
     inkscape:pageopacity="0"
     inkscape:pageshadow="2"
     inkscape:window-width="1920"
     inkscape:window-height="1043"
     id="namedview14"
     showgrid="false"
     inkscape:zoom="0.417193"
     inkscape:cx="-225.96253"
     inkscape:cy="179.40664"
     inkscape:window-x="0"
     inkscape:window-y="0"
     inkscape:window-maximized="1"
     inkscape:current-layer="svg12" />
  <title
     id="title2">github [#142]</title>
  <desc
     id="desc4">Created with Sketch.</desc>
  <defs
     id="defs6" />
  <rect
     id="rect18"
     width="20"
     height="20"
     x="0"
     y="0"
     style="stroke-width:0.025" />
  <g
     id="Page-1"
     style="fill:none;fill-rule:evenodd;stroke:none;stroke-width:1"
     transform="matrix(0.84375,0,0,0.84374688,1.5625,1.5624999)">
    <g
       id="Dribbble-Light-Preview"
       transform="translate(-140,-7559)"
       style="fill:#ffffff">
      <g
         id="icons"
         transform="translate(56,160)"
         style="fill:#ffffff">
        <path
           d="m 94,7399 c 5.523,0 10,4.59 10,10.253 0,4.529 -2.862,8.371 -6.833,9.728 -0.507,0.101 -0.687,-0.219 -0.687,-0.492 0,-0.338 0.012,-1.442 0.012,-2.814 0,-0.956 -0.32,-1.58 -0.679,-1.898 2.227,-0.254 4.567,-1.121 4.567,-5.059 0,-1.12 -0.388,-2.034 -1.03,-2.752 0.104,-0.259 0.447,-1.302 -0.098,-2.714 0,0 -0.838,-0.275 -2.747,1.051 -0.799,-0.227 -1.655,-0.341 -2.505,-0.345 -0.85,0 -1.705,0.118 -2.503,0.345 -1.911,-1.326 -2.751,-1.051 -2.751,-1.051 -0.543,1.412 -0.2,2.455 -0.097,2.714 -0.639,0.718 -1.03,1.632 -1.03,2.752 0,3.928 2.335,4.808 4.556,5.067 -0.286,0.256 -0.545,0.708 -0.635,1.371 -0.57,0.262 -2.018,0.715 -2.91,-0.852 0,0 -0.529,-0.985 -1.533,-1.057 0,0 -0.975,-0.013 -0.068,0.623 0,0 0.655,0.315 1.11,1.5 0,0 0.587,1.83 3.369,1.21 0.005,0.857 0.014,1.665 0.014,1.909 0,0.271 -0.184,0.588 -0.683,0.493 C 86.865,7417.627 84,7413.783 84,7409.253 84,7403.59 88.478,7399 94,7399"
           id="github-[#142]"
           inkscape:connector-curvature="0"
           style="fill:#ffffff" />
      </g>
    </g>
  </g>
</svg>
